<?xml version="1.0" encoding="UTF-8"?><svg xmlns="http://www.w3.org/2000/svg" xmlns:xlink="http://www.w3.org/1999/xlink" fill-opacity="1" color-rendering="auto" color-interpolation="auto" text-rendering="auto" stroke="black" stroke-linecap="square" width="568" stroke-miterlimit="10" shape-rendering="auto" stroke-opacity="1" fill="black" stroke-dasharray="none" font-weight="normal" stroke-width="1" height="199" font-family="'Dialog'" font-style="normal" stroke-linejoin="miter" font-size="12px" stroke-dashoffset="0" image-rendering="auto">
  <!--Generated by ySVG 2.5-->
  <defs id="genericDefs"/>
  <g>
    <defs id="defs1">
      <clipPath clipPathUnits="userSpaceOnUse" id="clipPath1">
        <path d="M0 0 L568 0 L568 199 L0 199 L0 0 Z"/>
      </clipPath>
      <clipPath clipPathUnits="userSpaceOnUse" id="clipPath2">
        <path d="M250 363 L818 363 L818 562 L250 562 L250 363 Z"/>
      </clipPath>
    </defs>
    <g fill="white" text-rendering="geometricPrecision" shape-rendering="geometricPrecision" transform="translate(-250,-363)" stroke="white">
      <rect x="250" width="568" height="199" y="363" clip-path="url(#clipPath2)" stroke="none"/>
    </g>
    <g text-rendering="geometricPrecision" stroke-miterlimit="1.45" shape-rendering="geometricPrecision" transform="matrix(1,0,0,1,-250,-363)" stroke-linecap="butt">
      <rect fill="none" x="265.0318" width="537.5601" height="168.5569" y="378.3289" clip-path="url(#clipPath2)"/>
      <rect fill="none" x="499.005" width="293.3349" height="53.7004" y="382.9555" clip-path="url(#clipPath2)"/>
    </g>
    <g fill="white" text-rendering="geometricPrecision" shape-rendering="geometricPrecision" transform="matrix(1,0,0,1,-250,-363)" stroke="white">
      <rect x="489.4897" width="92.7674" height="53.7004" y="384.9532" clip-path="url(#clipPath2)" stroke="none"/>
    </g>
    <g text-rendering="geometricPrecision" stroke-miterlimit="1.45" shape-rendering="geometricPrecision" transform="matrix(1,0,0,1,-250,-363)" stroke-linecap="butt">
      <rect fill="none" x="489.4897" width="92.7674" height="53.7004" y="384.9532" clip-path="url(#clipPath2)"/>
    </g>
    <g fill="silver" text-rendering="geometricPrecision" shape-rendering="geometricPrecision" transform="matrix(1,0,0,1,-250,-363)" stroke="silver">
      <rect x="493.6802" width="247.5962" height="54.5146" y="479.8433" clip-path="url(#clipPath2)" stroke="none"/>
    </g>
    <g text-rendering="geometricPrecision" stroke-miterlimit="1.45" shape-rendering="geometricPrecision" transform="matrix(1,0,0,1,-250,-363)" stroke-linecap="butt">
      <rect fill="none" x="493.6802" width="247.5962" height="54.5146" y="479.8433" clip-path="url(#clipPath2)"/>
      <rect fill="none" x="278.9805" width="186.9754" height="53.7004" y="384.9532" clip-path="url(#clipPath2)"/>
    </g>
    <g fill="silver" text-rendering="geometricPrecision" shape-rendering="geometricPrecision" transform="matrix(1,0,0,1,-250,-363)" stroke="silver">
      <rect x="278.9805" width="186.9754" height="54.5146" y="485.0768" clip-path="url(#clipPath2)" stroke="none"/>
    </g>
    <g text-rendering="geometricPrecision" stroke-miterlimit="1.45" shape-rendering="geometricPrecision" transform="matrix(1,0,0,1,-250,-363)" stroke-linecap="butt">
      <rect fill="none" x="278.9805" width="186.9754" height="54.5146" y="485.0768" clip-path="url(#clipPath2)"/>
    </g>
    <g fill="white" text-rendering="geometricPrecision" shape-rendering="geometricPrecision" transform="matrix(1,0,0,1,-250,-363)" stroke="white">
      <rect x="286.4621" width="49.3987" height="38.6508" y="390.5852" clip-path="url(#clipPath2)" stroke="none"/>
    </g>
    <g text-rendering="geometricPrecision" stroke-miterlimit="1.45" shape-rendering="geometricPrecision" font-family="sans-serif" transform="matrix(1,0,0,1,-250,-363)" stroke-linecap="butt">
      <text x="291.553" xml:space="preserve" y="414.0648" clip-path="url(#clipPath2)" stroke="none">Parent</text>
      <rect fill="none" x="286.4621" width="49.3987" height="38.6508" y="390.5852" clip-path="url(#clipPath2)"/>
    </g>
    <g fill="white" text-rendering="geometricPrecision" shape-rendering="geometricPrecision" transform="matrix(1,0,0,1,-250,-363)" stroke="white">
      <rect x="347.7689" width="49.3987" height="38.6508" y="493.0087" clip-path="url(#clipPath2)" stroke="none"/>
    </g>
    <g text-rendering="geometricPrecision" stroke-miterlimit="1.45" shape-rendering="geometricPrecision" font-family="sans-serif" transform="matrix(1,0,0,1,-250,-363)" stroke-linecap="butt">
      <text x="349.5405" xml:space="preserve" y="516.4884" clip-path="url(#clipPath2)" stroke="none">Woman</text>
      <rect fill="none" x="347.7689" width="49.3987" height="38.6508" y="493.0087" clip-path="url(#clipPath2)"/>
    </g>
    <g fill="white" text-rendering="geometricPrecision" shape-rendering="geometricPrecision" transform="matrix(1,0,0,1,-250,-363)" stroke="white">
      <rect x="405.8398" width="49.3987" height="38.6508" y="390.5852" clip-path="url(#clipPath2)" stroke="none"/>
    </g>
    <g text-rendering="geometricPrecision" stroke-miterlimit="1.45" shape-rendering="geometricPrecision" font-family="sans-serif" transform="matrix(1,0,0,1,-250,-363)" stroke-linecap="butt">
      <text x="410.6817" xml:space="preserve" y="414.0648" clip-path="url(#clipPath2)" stroke="none">Family</text>
      <rect fill="none" x="405.8398" width="49.3987" height="38.6508" y="390.5852" clip-path="url(#clipPath2)"/>
    </g>
    <g fill="white" text-rendering="geometricPrecision" shape-rendering="geometricPrecision" transform="matrix(1,0,0,1,-250,-363)" stroke="white">
      <rect x="509.2679" width="49.3987" height="38.6508" y="390.4803" clip-path="url(#clipPath2)" stroke="none"/>
    </g>
    <g text-rendering="geometricPrecision" stroke-miterlimit="1.45" shape-rendering="geometricPrecision" font-family="sans-serif" transform="matrix(1,0,0,1,-250,-363)" stroke-linecap="butt">
      <text x="510.1313" xml:space="preserve" y="413.9599" clip-path="url(#clipPath2)" stroke="none">Country</text>
      <rect fill="none" x="509.2679" width="49.3987" height="38.6508" y="390.4803" clip-path="url(#clipPath2)"/>
    </g>
    <g fill="silver" text-rendering="geometricPrecision" shape-rendering="geometricPrecision" transform="matrix(1,0,0,1,-250,-363)" stroke="silver">
      <rect x="489.4897" width="92.7674" height="54.5146" y="485.0768" clip-path="url(#clipPath2)" stroke="none"/>
    </g>
    <g text-rendering="geometricPrecision" stroke-miterlimit="1.45" shape-rendering="geometricPrecision" transform="matrix(1,0,0,1,-250,-363)" stroke-linecap="butt">
      <rect fill="none" x="489.4897" width="92.7674" height="54.5146" y="485.0768" clip-path="url(#clipPath2)"/>
    </g>
    <g fill="white" text-rendering="geometricPrecision" shape-rendering="geometricPrecision" transform="matrix(1,0,0,1,-250,-363)" stroke="white">
      <rect x="495.9559" width="76.0227" height="38.6508" y="493.0087" clip-path="url(#clipPath2)" stroke="none"/>
    </g>
    <g text-rendering="geometricPrecision" stroke-miterlimit="1.45" shape-rendering="geometricPrecision" font-family="sans-serif" transform="matrix(1,0,0,1,-250,-363)" stroke-linecap="butt">
      <text x="499.2417" xml:space="preserve" y="516.4884" clip-path="url(#clipPath2)" stroke="none">Community</text>
      <rect fill="none" x="495.9559" width="76.0227" height="38.6508" y="493.0087" clip-path="url(#clipPath2)"/>
    </g>
    <g fill="white" text-rendering="geometricPrecision" shape-rendering="geometricPrecision" transform="matrix(1,0,0,1,-250,-363)" stroke="white">
      <rect x="612.2571" width="49.3987" height="38.6508" y="390.4803" clip-path="url(#clipPath2)" stroke="none"/>
    </g>
    <g text-rendering="geometricPrecision" stroke-miterlimit="1.45" shape-rendering="geometricPrecision" font-family="sans-serif" transform="matrix(1,0,0,1,-250,-363)" stroke-linecap="butt">
      <text x="617.099" xml:space="preserve" y="413.9599" clip-path="url(#clipPath2)" stroke="none">Family</text>
      <rect fill="none" x="612.2571" width="49.3987" height="38.6508" y="390.4803" clip-path="url(#clipPath2)"/>
    </g>
    <g fill="white" text-rendering="geometricPrecision" shape-rendering="geometricPrecision" transform="matrix(1,0,0,1,-250,-363)" stroke="white">
      <rect x="733.3606" width="49.3987" height="38.6508" y="390.4803" clip-path="url(#clipPath2)" stroke="none"/>
    </g>
    <g text-rendering="geometricPrecision" stroke-miterlimit="1.45" shape-rendering="geometricPrecision" font-family="sans-serif" transform="matrix(1,0,0,1,-250,-363)" stroke-linecap="butt">
      <text x="742.9252" xml:space="preserve" y="413.9599" clip-path="url(#clipPath2)" stroke="none">Child</text>
      <rect fill="none" x="733.3606" width="49.3987" height="38.6508" y="390.4803" clip-path="url(#clipPath2)"/>
    </g>
    <g fill="white" text-rendering="geometricPrecision" shape-rendering="geometricPrecision" transform="matrix(1,0,0,1,-250,-363)" stroke="white">
      <rect x="657.0799" width="76.0227" height="38.6508" y="493.0087" clip-path="url(#clipPath2)" stroke="none"/>
    </g>
    <g text-rendering="geometricPrecision" stroke-miterlimit="1.45" shape-rendering="geometricPrecision" font-family="sans-serif" transform="matrix(1,0,0,1,-250,-363)" stroke-linecap="butt">
      <text x="672.1635" xml:space="preserve" y="516.4884" clip-path="url(#clipPath2)" stroke="none">Woman</text>
      <rect fill="none" x="657.0799" width="76.0227" height="38.6508" y="493.0087" clip-path="url(#clipPath2)"/>
      <path fill="none" d="M322.7289 429.2359 L360.9008 493.0087" clip-path="url(#clipPath2)"/>
      <path fill="none" d="M335.8472 398.9686 L341.0059 397.1272 L355.9281 393.9314 L370.8503 392.8661 L385.7725 393.9314 L400.6947 397.1272 L405.8533 398.9686" clip-path="url(#clipPath2)"/>
      <text x="353.5397" xml:space="preserve" y="404.6708" clip-path="url(#clipPath2)" stroke="none">family</text>
      <path fill="none" d="M419.5822 429.2359 L383.4251 493.0087" clip-path="url(#clipPath2)"/>
      <path fill="none" d="M405.8533 417.5656 L400.6947 418.8539 L385.7725 421.0897 L370.8503 421.835 L355.9281 421.0897 L341.0059 418.8539 L335.8472 417.5656" clip-path="url(#clipPath2)"/>
      <text x="347.2374" xml:space="preserve" y="432.4317" clip-path="url(#clipPath2)" stroke="none">mothers</text>
      <path fill="none" d="M533.9673 429.131 L533.9673 493.0087" clip-path="url(#clipPath2)"/>
      <path fill="none" d="M558.6666 409.8056 L612.2571 409.8056" clip-path="url(#clipPath2)"/>
      <text x="562.1001" xml:space="preserve" y="423.8895" clip-path="url(#clipPath2)" stroke="none">families</text>
      <path fill="none" d="M661.6558 409.8056 L733.3606 409.8056" clip-path="url(#clipPath2)"/>
      <text x="667.0624" xml:space="preserve" y="425.1183" clip-path="url(#clipPath2)" stroke="none">daughters</text>
      <path fill="none" d="M746.1911 429.131 L706.96 493.0087" clip-path="url(#clipPath2)"/>
      <path fill="none" d="M571.9786 512.3341 L657.0799 512.3341" clip-path="url(#clipPath2)"/>
      <text x="592.4752" xml:space="preserve" y="525.5988" clip-path="url(#clipPath2)" stroke="none">persons</text>
    </g>
  </g>
</svg>
